<svg xmlns="http://www.w3.org/2000/svg" xmlns:xlink="http://www.w3.org/1999/xlink" width="1920" height="1080" viewBox="0 0 1920 1080">
  <defs>
    <clipPath id="clip-path">
      <rect id="Retângulo_149" data-name="Retângulo 149" width="1080" height="1920" transform="translate(0 3240) rotate(-90)" fill="#173c6b"/>
    </clipPath>
    <clipPath id="clip-path-2">
      <rect id="Retângulo_147" data-name="Retângulo 147" width="2482.143" height="1110.955" fill="none"/>
    </clipPath>
    <clipPath id="clip-path-3">
      <rect id="Retângulo_146" data-name="Retângulo 146" width="2482.137" height="1110.955" fill="none"/>
    </clipPath>
    <clipPath id="clip-path-5">
      <path id="Caminho_75" data-name="Caminho 75" d="M4.616,168.152a15.877,15.877,0,0,0,27.147-12.624L237.934,64.888a16.315,16.315,0,0,0,3.638,5.944c.069,0,.139.09.159.111L88.7,329.08a15.938,15.938,0,1,0-2.527,30.2l96.252,247.854a15.049,15.049,0,0,0-4.218,2.944A15.916,15.916,0,0,0,200.5,632.807l305.7,227a15.885,15.885,0,1,0,29.309,11.8L997.1,896.321a15.826,15.826,0,0,0,.818,19.359L890.19,1081.1a15.666,15.666,0,1,0,3.715,2.687c-.043-.061-.1-.069-.1-.1l107.375-164.923a15.954,15.954,0,0,0,20.107-1.9,15.625,15.625,0,0,0,2.736-3.762l194.394,62.138a15.93,15.93,0,1,0,27.021-8.71,14.844,14.844,0,0,0-4.9-3.319l22.081-122.048,250.459-65.193a15.3,15.3,0,0,0,3.576,5.764,15.95,15.95,0,0,0,22.663-22.449,16.817,16.817,0,0,0-3.692-2.668l101.055-240.288,191.5-25.581a15.488,15.488,0,0,0,3.811,6.43,15.938,15.938,0,0,0,22.643-22.435,18.154,18.154,0,0,0-1.746-1.419l91.126-223.445,140.168-1.317a15.9,15.9,0,1,0,27.368-13.115L2249.08,66.328a15.789,15.789,0,0,0,17.711-.873l186.757,188.406a15.971,15.971,0,1,0,3.165-3.132L2269.922,62.351a15.9,15.9,0,1,0-28.478-10.857L2031.713,64.2a15.918,15.918,0,0,0-31.519,3.6L1315.047,183.182a15.663,15.663,0,0,0-3.832-6.451,15.891,15.891,0,0,0-25.5,18.32L1057.278,353.205,948.517,171.791a15.929,15.929,0,0,0-23.066-21.958c-.027.056-.07.174-.125.18L680.459,19.351a15.944,15.944,0,0,0-26.8-14.744,15.787,15.787,0,0,0-4.49,9.3L267.263,52.782a17.289,17.289,0,0,0-3.028-4.476,16,16,0,0,0-22.545-.047A15.7,15.7,0,0,0,237.075,60.9L30.808,151.136A15.951,15.951,0,0,0,4.728,145.6a15.946,15.946,0,0,0-.111,22.553M245.4,73.541a15.9,15.9,0,0,0,16.4-.734l76.431,108.136a15.171,15.171,0,0,0-3.167,2.37,15.883,15.883,0,0,0-3.478,17.453L95.161,334.13c-.415-.478-.783-1.045-1.262-1.572a12.278,12.278,0,0,0-1.433-1.151Zm406.516-48.4a17.957,17.957,0,0,0,1.683,2.051,14.41,14.41,0,0,0,3.513,2.572l-30.335,67.07a16.009,16.009,0,0,0-13.9,4.365,15.528,15.528,0,0,0-3.928,6.6L536.1,96.857a16.3,16.3,0,0,0,.027-6.4ZM920.948,159.243a16.127,16.127,0,0,0,.707,7L502.689,389.553c-.188-.124-.215-.262-.375-.429a21.865,21.865,0,0,0-2.016-1.65L617.92,127.19a15.8,15.8,0,0,0,21.43-10.338ZM935.435,177l-9.673,156.873-6.195,100.709a15.817,15.817,0,0,0-9.992,4.5,15.657,15.657,0,0,0-4.539,12.79L754.8,487.367a14.351,14.351,0,0,0-2.4-3.216,12.171,12.171,0,0,0-1.317-1.081L931.562,176.212a19.082,19.082,0,0,0,3.873.789m194.6,306.291L1210.7,617.848a14.4,14.4,0,0,0-1.247.99,13.116,13.116,0,0,0-1.1,1.386L935.5,456.6c.243-.574.4-1.149.581-1.746Zm96.158,14.086a15.889,15.889,0,0,0,13.157,15.853l-18.077,101.035a16.066,16.066,0,0,0-6.825,1.274L1135.7,484.1Zm392.823-247.106a15.924,15.924,0,0,0,4.58,11.974,15.2,15.2,0,0,0,2.7,2.153l-137.833,253.35a15.928,15.928,0,0,0-10.671.1L1309.226,200.773a11.707,11.707,0,0,0,1.9-1.538,15.421,15.421,0,0,0,3.825-6.222Zm216.558,221.782L1723.26,345.216c.249-.256.574-.45.844-.7a15.932,15.932,0,0,0,1.824-20.378l73.811-64.588c.249.269.458.568.707.824a15.876,15.876,0,0,0,11.322,4.711l28.949,205.153a17.093,17.093,0,0,0-5.142,1.815M1516.756,759.208a15.231,15.231,0,0,0-1.983,2.376l-180.25-81.876,139.239-134.2a15.728,15.728,0,0,0,8.4,3.118l40.458,206.907a15.6,15.6,0,0,0-5.862,3.672M1298.542,729.13a15.577,15.577,0,0,0-3.7-11.211l36.25-34.907,180.259,81.843ZM1019.758,892.953l193.81-248.588a15.51,15.51,0,0,0,6.2,1.656l4.76,116.132L1020.923,893.923a7.724,7.724,0,0,0-1.164-.971m-42.8-188.621a15.513,15.513,0,0,0-10.04-4.552L925.722,465.5a15.738,15.738,0,0,0,6.347-3.77,9.088,9.088,0,0,0,1.059-1.358l272.847,163.588a15.81,15.81,0,0,0-.943,9.23L980.486,709.834a16.191,16.191,0,0,0-3.527-5.5M1253.395,508.88a16.128,16.128,0,0,0,4.012-6.964l209.919,30.75a14.655,14.655,0,0,0,.8,4.787l-233.138,85.895a16.254,16.254,0,0,0-2.993-4.392,16.026,16.026,0,0,0-6.367-3.879l18.229-101.742a15.9,15.9,0,0,0,9.534-4.455m38.24,206.011a15.935,15.935,0,0,0-16.816-.588l-43.845-72.045c.278-.285.624-.472.935-.763a19.772,19.772,0,0,0,2.1-2.591l92.756,42.113Zm-64.4-70.256L1271.3,717.04a15.9,15.9,0,0,0-3.367,17.065l-39.113,25.276L1224.2,645.674a13.057,13.057,0,0,0,3.035-1.039m8.612-9.763a15.516,15.516,0,0,0,.519-7.289l233.541-86.1a10.1,10.1,0,0,0,.726.914L1330.206,677.747Zm-212.1,262.467,200.989-130,3.18,78.3-203.51,53c-.188-.415-.43-.887-.659-1.3m205.284-132.8,41.184-26.641a11.272,11.272,0,0,0,1.164,1.386,15.284,15.284,0,0,0,4.649,3.229l-17.245,95.054-26.475,6.915ZM1494.043,521.1a18.113,18.113,0,0,0-1.648-1.329L1630.359,266.25a15.851,15.851,0,0,0,14.481-2.869l54.487,61.486a15.945,15.945,0,0,0-.014,16.65Zm208.132-199.678-54.225-61.243a15.721,15.721,0,0,0,2.724-7.621l145.343-1.338a15.854,15.854,0,0,0,1.3,4.58l-74.429,65.068a15.887,15.887,0,0,0-20.709.556m118.1-85.7a15.8,15.8,0,0,0-24.216,11.066l-145.468,1.351c-.131-.63-.333-1.212-.491-1.815l352.277-169.88Zm-514.942-32.856,168.6,317.051c-.632.5-1.311.984-1.906,1.519a16.01,16.01,0,0,0-4,6.858l-209.927-30.722a15.64,15.64,0,0,0-4.629-11.217,15.033,15.033,0,0,0-4.267-3.008l50.115-279.5a16.572,16.572,0,0,0,6.022-.977M921.371,466.282l41.094,233.664a16.3,16.3,0,0,0-8.072,4.3A15.859,15.859,0,0,0,950.43,720.1L535.261,861.745a23.05,23.05,0,0,0-1.221-2.633L911.552,463.324a15.847,15.847,0,0,0,9.819,2.958M523.052,851.409,505.66,561.267a15.36,15.36,0,0,0,6.887-3.907,15.95,15.95,0,0,0,4.539-9.222l208.485-49.291a15.948,15.948,0,0,0,4.214,7.753c.519.491,1.059.887,1.586,1.3L528.283,853.37a16.012,16.012,0,0,0-5.232-1.961M512.021,853.5,299.516,599.57l188.65-44.593a17.053,17.053,0,0,0,1.85,2.266,15.976,15.976,0,0,0,11.266,4.725l17.3,289.343a15.575,15.575,0,0,0-6.562,2.19M333.891,204.535a14.294,14.294,0,0,0,1.061,1.29,15.9,15.9,0,0,0,21.534.942L483.461,386.374a15.686,15.686,0,0,0-3.707,2.681,17.889,17.889,0,0,0-2.6,3.449L98.48,343.623a16.3,16.3,0,0,0-1.061-5.682ZM490.112,534.7a15.9,15.9,0,0,0-3.907,16.206l-189.862,44.85L279.8,576.019a15.934,15.934,0,0,0,2.668-18.666L478.895,410.638a9.772,9.772,0,0,0,.775.936,15.876,15.876,0,0,0,12.916,4.607l6.8,114.081a15.837,15.837,0,0,0-9.271,4.443M97.878,347.987,475.5,396.773a16.018,16.018,0,0,0,1.012,10.136L279.895,553.744c-.043-.021-.07-.082-.125-.09a15.829,15.829,0,0,0-20.287-1.94L94.357,354.4a15.421,15.421,0,0,0,3.521-6.416m159.388,228.2a15.891,15.891,0,0,0,19,2.487l15.264,18.237L204.787,617.4c-.139-.533-.292-1.067-.472-1.634Zm-51.945,45.66,89.373-21.111,213.44,254.977L203.2,629.259a16.122,16.122,0,0,0,2.12-7.414M752.338,506.69a15.818,15.818,0,0,0,4.177-15.145l149.461-35.372a15.314,15.314,0,0,0,2.4,4.04L533.464,853.258l201.724-343.1a15.782,15.782,0,0,0,17.149-3.464M925.381,172.4a21.412,21.412,0,0,0,2.19,1.781L747.349,480.708a16.117,16.117,0,0,0-17.474,3.312,15.843,15.843,0,0,0-4.6,10.324L517.057,543.593a16.091,16.091,0,0,0-4.412-8.8,15.819,15.819,0,0,0-8.807-4.476l-6.921-115.135A15.047,15.047,0,0,0,502.2,411.7a15.9,15.9,0,0,0,2.994-18.466L923.649,170.2a14.719,14.719,0,0,0,1.732,2.2M509.8,105.316a15.87,15.87,0,0,0,21.943-.4,15.188,15.188,0,0,0,2.779-3.852l73.646,11.058a15.983,15.983,0,0,0,4.586,11.6,12.372,12.372,0,0,0,1.378,1.123L496.348,385.4a15.789,15.789,0,0,0-8.563-.636l-128.2-181.318a15.955,15.955,0,0,0,1.607-14.3ZM90.319,357.639a6.162,6.162,0,0,0,.672-.339L256.219,554.742a15.984,15.984,0,0,0-1.615,17.911l-52.491,39.209a19.616,19.616,0,0,0-1.393-1.683,15.968,15.968,0,0,0-14.1-4.476Zm445.9,509.6a5.815,5.815,0,0,0-.069-1.108L952.211,724.114a14.771,14.771,0,0,0,2.1,2.661,15.87,15.87,0,0,0,13.665,4.5l28.241,160.586Zm464.612,25.346L972.255,730.052a16.666,16.666,0,0,0,4.607-3.173,15.875,15.875,0,0,0,4.566-12.743l225.066-76.784a17.508,17.508,0,0,0,2.848,4.047c.174.18.381.29.568.484l-194,248.825a15.936,15.936,0,0,0-15.084,1.879m24.958,10.26,202.318-52.7,4.533,111.794a15.687,15.687,0,0,0-9.729,4.469,16.3,16.3,0,0,0-3.179,4.6l-194.087-62.075a16.672,16.672,0,0,0,.145-6.091m211.16,55.417-4.49-109.238,25.436-6.61Zm26.577-121.9,16.748-92.533a15.927,15.927,0,0,0,13.657-4.435,15.509,15.509,0,0,0,3.727-5.911l214.486,36.009a16.852,16.852,0,0,0-.008,2.114Zm267.984-81.365a16.45,16.45,0,0,0-4.552-.311l-40.338-206.338a16.122,16.122,0,0,0,7.856-4.24,15.817,15.817,0,0,0,4.531-9.418l132.588-17.674Zm102.038-242.678-134.569,17.959a16.037,16.037,0,0,0-2.149-5.779l205.32-179.579a10.356,10.356,0,0,0,1.366,1.074Zm5.114-.714,68.734-163.484a16.06,16.06,0,0,0,12.076-.47L1832.02,474.721a15.743,15.743,0,0,0-4.609,11.7Zm210.3-40.512a13.157,13.157,0,0,0-3.8-.894l-29-205.8a15.6,15.6,0,0,0,6.825-3.921,16.239,16.239,0,0,0,4.56-9.506l111.7-1.067Zm92.069-225.626-113.589,1.059a15.708,15.708,0,0,0-2.405-6.214L2005.813,79.451a17.266,17.266,0,0,0,2.286,1.628Zm4.823-.035,66.377-162.68a16.119,16.119,0,0,0,8.543-.2l70.374,150.32a17.264,17.264,0,0,0-2.5,2.03,15.71,15.71,0,0,0-4.482,9.244ZM2241.7,55.928a15.918,15.918,0,0,0,3.948,7.65L2108.094,232.6a15.974,15.974,0,0,0-12.873-1.58l-70.411-150.3a13.8,13.8,0,0,0,2.523-2.043,15.853,15.853,0,0,0,4.58-10.054ZM2000.977,72.155c.006.014.006.014.006.056L1648.263,242.3a14.734,14.734,0,0,0-2.045-2.494,15.886,15.886,0,0,0-22.524-.111,15.353,15.353,0,0,0-3.8,6.243l-304.124-57.28a10.7,10.7,0,0,0,.035-1.171ZM1288.212,198.681a4.751,4.751,0,0,0,.368.456,15.485,15.485,0,0,0,6.373,3.881l-49.976,278.868a15.925,15.925,0,0,0-14.074,4.351,15.678,15.678,0,0,0-3.962,6.762l-94.175-13.788-73.209-122.195ZM1055.906,359.572l71.22,118.821L936.745,450.5a15.364,15.364,0,0,0-1.753-7.212ZM932.519,439.614a5.807,5.807,0,0,0-.382-.452,15.912,15.912,0,0,0-8.114-4.392l6.355-103.84,9.465-154.152a17,17,0,0,0,5.286-2.1l108.518,181.1Zm-9.784-285.977a10.93,10.93,0,0,0-.685,1.309l-282.021-42.46a15.723,15.723,0,0,0-4.621-11.156,15.908,15.908,0,0,0-4.392-3.1l30.208-66.806a15.842,15.842,0,0,0,14.9-4.177,16.059,16.059,0,0,0,2.742-3.693ZM649.169,18.381a19.253,19.253,0,0,0,.707,2.82L534.56,86.262a15.275,15.275,0,0,0-2.752-3.895,15.863,15.863,0,0,0-22.5-.055,15.6,15.6,0,0,0-4.586,9.8L270.673,56.877ZM504.856,96.634a15.75,15.75,0,0,0,2.065,5.232L359.1,185.239c-.5-.609-.942-1.268-1.531-1.871a15.851,15.851,0,0,0-15.16-4.157L265.061,69.793a16.13,16.13,0,0,0,3.664-8.71Z" transform="translate(0 0)" fill="none"/>
    </clipPath>
    <linearGradient id="linear-gradient" x1="0.001" y1="0.714" x2="0.002" y2="0.714" gradientUnits="objectBoundingBox">
      <stop offset="0" stop-color="#2f00be"/>
      <stop offset="1" stop-color="#4cd4fc"/>
    </linearGradient>
  </defs>
  <g id="Grupo_de_máscara_8" data-name="Grupo de máscara 8" transform="translate(0 -2160)" clip-path="url(#clip-path)">
    <g id="Grupo_66" data-name="Grupo 66" transform="translate(2327.072 2617.954) rotate(-180)" opacity="0.4">
      <g id="Grupo_73" data-name="Grupo 73" clip-path="url(#clip-path-2)">
        <g id="Grupo_72" data-name="Grupo 72">
          <g id="Grupo_71" data-name="Grupo 71" clip-path="url(#clip-path-3)">
            <g id="Grupo_70" data-name="Grupo 70" opacity="0.2">
              <g id="Grupo_69" data-name="Grupo 69">
                <g id="Grupo_68" data-name="Grupo 68" clip-path="url(#clip-path-2)">
                  <g id="Grupo_67" data-name="Grupo 67" transform="translate(0 0)">
                    <g id="Grupo_66-2" data-name="Grupo 66" clip-path="url(#clip-path-5)">
                      <rect id="Retângulo_144" data-name="Retângulo 144" width="2489.324" height="2593.677" transform="translate(-555.439 615.354) rotate(-48.085)" fill="url(#linear-gradient)"/>
                    </g>
                  </g>
                </g>
              </g>
            </g>
          </g>
        </g>
      </g>
    </g>
  </g>
</svg>
