<svg id="Grupo_74" data-name="Grupo 74" xmlns="http://www.w3.org/2000/svg" xmlns:xlink="http://www.w3.org/1999/xlink" width="86.13" height="52.678" viewBox="0 0 86.13 52.678">
  <defs>
    <clipPath id="clip-path">
      <rect id="Retângulo_31" data-name="Retângulo 31" width="86.13" height="52.678" fill="none"/>
    </clipPath>
  </defs>
  <g id="Grupo_4" data-name="Grupo 4" clip-path="url(#clip-path)">
    <path id="Caminho_27" data-name="Caminho 27" d="M69.582,7.132V40.824H63.3v-4.07a9.242,9.242,0,0,1-8.191,4.07c-7.471,0-13.088-4.946-13.088-13.292,0-8.757,5.513-13.292,12.932-13.292,2.68,0,6.852,1.443,8.346,4.071V7.132ZM47.015,27.692a7.292,7.292,0,1,0,14.579,0,7.248,7.248,0,0,0-7.367-7.418,7.007,7.007,0,0,0-7.212,7.418" transform="translate(-20.81 -3.532)" fill="#009db4"/>
    <path id="Caminho_28" data-name="Caminho 28" d="M122.78,39.2c.412,3.143,3.144,5.409,7.574,5.409,2.318,0,5.358-.875,6.8-2.369l4.019,3.966c-2.68,2.782-7.059,4.123-10.923,4.123-8.758,0-13.962-5.409-13.962-13.551,0-7.727,5.254-13.292,13.5-13.292,8.5,0,13.807,5.254,12.828,15.713Zm13.807-5.2c-.412-3.3-2.988-4.946-6.6-4.946-3.4,0-6.181,1.65-7.111,4.946Z" transform="translate(-57.592 -11.629)" fill="#009db4"/>
    <path id="Caminho_29" data-name="Caminho 29" d="M104.526,43.329a9.362,9.362,0,0,0,5.163-7.323h.02c.012-.1.012-.207.025-.306a13.478,13.478,0,0,0,.15-1.851,13.615,13.615,0,0,0-.217-2.347,11.972,11.972,0,0,0-8-9.735,11.58,11.58,0,0,0-4.613-.8l-.025,0-.025,0c-.313,0-.628.022-.944.037v.052A12.291,12.291,0,0,0,84.175,33.849c0,7.934,4.946,12.777,12.88,12.777,3.144,0,6.44,1.6,6.44,5.1s-2.833,5.461-6.44,5.461-6.645-2.165-6.645-5.461H84.175c0,6.852,5.513,11.335,12.88,11.335s12.725-4.327,12.725-11.335c0-3.247-1.03-6.287-5.254-8.4m-7.471-2.421c-3.656,0-6.645-2.628-6.645-7.059s2.976-7.145,6.62-7.16a6.783,6.783,0,0,1,2.478.471c.025.01.055.015.082.025a5.209,5.209,0,0,1,.466.249,6.918,6.918,0,0,1,3.595,6.415,8.366,8.366,0,0,1-.293,2.128,6.373,6.373,0,0,1-6.3,4.931" transform="translate(-41.688 -10.383)" fill="#173c6b"/>
    <rect id="Retângulo_18" data-name="Retângulo 18" width="6.236" height="0.574" transform="translate(42.487 40.364)" fill="#173c6b"/>
    <rect id="Retângulo_19" data-name="Retângulo 19" width="6.236" height="0.574" transform="translate(42.487 39.472)" fill="#173c6b"/>
    <rect id="Retângulo_20" data-name="Retângulo 20" width="6.236" height="0.574" transform="translate(42.487 38.582)" fill="#009db4"/>
    <rect id="Retângulo_21" data-name="Retângulo 21" width="6.236" height="0.574" transform="translate(42.487 37.689)" fill="#009db4"/>
    <rect id="Retângulo_22" data-name="Retângulo 22" width="0.574" height="5.649" transform="translate(79.832 30.395) rotate(-45.249)" fill="#009db4"/>
    <rect id="Retângulo_23" data-name="Retângulo 23" width="0.574" height="5.649" transform="translate(80.459 29.763) rotate(-45.249)" fill="#009db4"/>
    <rect id="Retângulo_24" data-name="Retângulo 24" width="0.574" height="5.649" transform="translate(81.087 29.128) rotate(-45.249)" fill="#173c6b"/>
    <rect id="Retângulo_25" data-name="Retângulo 25" width="0.574" height="5.649" transform="translate(81.715 28.494) rotate(-45.249)" fill="#173c6b"/>
    <rect id="Retângulo_26" data-name="Retângulo 26" width="6.236" height="0.574" transform="translate(42.487)" fill="#173c6b"/>
    <rect id="Retângulo_27" data-name="Retângulo 27" width="6.236" height="0.574" transform="translate(42.487 0.893)" fill="#173c6b"/>
    <rect id="Retângulo_28" data-name="Retângulo 28" width="6.236" height="0.574" transform="translate(42.487 1.783)" fill="#009db4"/>
    <rect id="Retângulo_29" data-name="Retângulo 29" width="6.236" height="0.574" transform="translate(42.487 2.675)" fill="#009db4"/>
    <path id="Caminho_30" data-name="Caminho 30" d="M27.6,42.632l-5.077-2.473a7.377,7.377,0,0,1-2.086,2.4,5.856,5.856,0,0,1-.654.486c-.128.089-.264.168-.394.251A12.06,12.06,0,0,1,14.066,44.6C9.636,44.6,6.9,42.336,6.492,39.2H26.328C27.306,28.736,22,23.482,13.5,23.482,5.257,23.482,0,29.047,0,36.774,0,44.915,5.2,50.3,13.963,50.325a17.094,17.094,0,0,0,7.932-1.958c.039,0,.935-.547,1.194-.725a17,17,0,0,0,1.706-1.366c.027-.027.064-.044.091-.074l0,0A12.061,12.061,0,0,0,27.6,42.632M13.7,29.044c3.607,0,6.184,1.65,6.6,4.946H6.593c.927-3.3,3.711-4.946,7.111-4.946" transform="translate(0 -11.629)" fill="#173c6b"/>
    <path id="Caminho_31" data-name="Caminho 31" d="M61.074,55.921a7.228,7.228,0,0,1-6.253,3.4,7.015,7.015,0,0,1-6.117-3.4H43.22c1.585,5.737,6.386,9.066,12.478,9.066a9.243,9.243,0,0,0,8.191-4.07v-5Z" transform="translate(-21.405 -27.695)" fill="#009db4"/>
    <rect id="Retângulo_30" data-name="Retângulo 30" width="6.285" height="0.338" transform="translate(42.487 3.6)" fill="#009db4"/>
  </g>
</svg>
